# xmcd
#
# Track frame offsets:
#	183
#	19575
#	27445
#	40770
#	49095
#	66070
#	75075
#	78748
#	92260
#	103693
#	110535
#	113728
#	123310
#	139230
#	149483
#
# Disc length: 2587 seconds
#
# Revision: 2
# Processed by: cddbd v1.5.2PL0 Copyright (c) Steve Scherf et al.
# Submitted via: EZCDAudioConverter 2.2.0.1
#
DISCID=bd0a190f
DTITLE=Pro Arte Orch. - BBC S.O. - Sir Malcolm Sargent  - Gilbert and Sullivan -
DTITLE=Iolanthe  Cd 2
DYEAR=2001
DGENRE=Opera
TTITLE0=Iolanthe - When All Night Long A Chap Remains
TTITLE1=Iolanthe - Strephon's A Member Of Parliament
TTITLE2=Iolanthe - When Britain Really Ruled The Waves
TTITLE3=Iolanthe - In Vain To Us You Plead
TTITLE4=Iolanthe - Oh, Foolish Fay
TTITLE5=Iolanthe - Though Perhaps I May Incur Your Blame
TTITLE6=Iolanthe - Love Unrequited Robs Me Of My Rest
TTITLE7=Iolanthe - When You're Lying Awake
TTITLE8=Iolanthe - If You Go In You're Sure To Win
TTITLE9=Iolanthe - If We're Weak Enough To Tarry
TTITLE10=Iolanthe - A Suppliant At Your Feet
TTITLE11=Iolanthe - If In Bygone Years
TTITLE12=Iolanthe - It May Not Be
TTITLE13=Iolanthe - Soon As We May
TTITLE14=Overture Di Ballo (Sargent, Bbc So)
EXTD=
EXTT0=
EXTT1=
EXTT2=
EXTT3=
EXTT4=
EXTT5=
EXTT6=
EXTT7=
EXTT8=
EXTT9=
EXTT10=
EXTT11=
EXTT12=
EXTT13=
EXTT14=
PLAYORDER=
